<mxfile host="app.diagrams.net" agent="Mozilla/5.0 (Windows NT 10.0; Win64; x64) AppleWebKit/537.36 (KHTML, like Gecko) Chrome/136.0.0.0 Safari/537.36 Edg/136.0.0.0" version="27.0.6">
  <diagram id="C5RBs43oDa-KdzZeNtuy" name="Page-1">
    <mxGraphModel dx="1418" dy="794" grid="1" gridSize="10" guides="1" tooltips="1" connect="1" arrows="1" fold="1" page="1" pageScale="1" pageWidth="827" pageHeight="1169" math="0" shadow="0">
      <root>
        <mxCell id="WIyWlLk6GJQsqaUBKTNV-0" />
        <mxCell id="WIyWlLk6GJQsqaUBKTNV-1" parent="WIyWlLk6GJQsqaUBKTNV-0" />
        <mxCell id="zkfFHV4jXpPFQw0GAbJ--0" value="Mine" style="swimlane;fontStyle=2;align=center;verticalAlign=top;childLayout=stackLayout;horizontal=1;startSize=26;horizontalStack=0;resizeParent=1;resizeLast=0;collapsible=1;marginBottom=0;rounded=0;shadow=0;strokeWidth=1;" parent="WIyWlLk6GJQsqaUBKTNV-1" vertex="1">
          <mxGeometry x="334" y="20" width="160" height="100" as="geometry">
            <mxRectangle x="360" y="90" width="160" height="26" as="alternateBounds" />
          </mxGeometry>
        </mxCell>
        <mxCell id="zkfFHV4jXpPFQw0GAbJ--1" value="- Id : int" style="text;align=left;verticalAlign=top;spacingLeft=4;spacingRight=4;overflow=hidden;rotatable=0;points=[[0,0.5],[1,0.5]];portConstraint=eastwest;" parent="zkfFHV4jXpPFQw0GAbJ--0" vertex="1">
          <mxGeometry y="26" width="160" height="26" as="geometry" />
        </mxCell>
        <mxCell id="zkfFHV4jXpPFQw0GAbJ--2" value="- Level : int" style="text;align=left;verticalAlign=top;spacingLeft=4;spacingRight=4;overflow=hidden;rotatable=0;points=[[0,0.5],[1,0.5]];portConstraint=eastwest;rounded=0;shadow=0;html=0;" parent="zkfFHV4jXpPFQw0GAbJ--0" vertex="1">
          <mxGeometry y="52" width="160" height="26" as="geometry" />
        </mxCell>
        <mxCell id="zkfFHV4jXpPFQw0GAbJ--3" value="- Name: string" style="text;align=left;verticalAlign=top;spacingLeft=4;spacingRight=4;overflow=hidden;rotatable=0;points=[[0,0.5],[1,0.5]];portConstraint=eastwest;rounded=0;shadow=0;html=0;" parent="zkfFHV4jXpPFQw0GAbJ--0" vertex="1">
          <mxGeometry y="78" width="160" height="22" as="geometry" />
        </mxCell>
        <mxCell id="AmCgRK_z2GuwqKj7xeCC-4" style="edgeStyle=orthogonalEdgeStyle;rounded=0;orthogonalLoop=1;jettySize=auto;html=1;" edge="1" parent="WIyWlLk6GJQsqaUBKTNV-1" source="zkfFHV4jXpPFQw0GAbJ--13" target="zkfFHV4jXpPFQw0GAbJ--0">
          <mxGeometry relative="1" as="geometry">
            <Array as="points">
              <mxPoint x="234" y="160" />
              <mxPoint x="414" y="160" />
            </Array>
          </mxGeometry>
        </mxCell>
        <mxCell id="zkfFHV4jXpPFQw0GAbJ--13" value="IronMine" style="swimlane;fontStyle=0;align=center;verticalAlign=top;childLayout=stackLayout;horizontal=1;startSize=26;horizontalStack=0;resizeParent=1;resizeLast=0;collapsible=1;marginBottom=0;rounded=0;shadow=0;strokeWidth=1;" parent="WIyWlLk6GJQsqaUBKTNV-1" vertex="1">
          <mxGeometry x="144" y="220" width="160" height="50" as="geometry">
            <mxRectangle x="340" y="380" width="170" height="26" as="alternateBounds" />
          </mxGeometry>
        </mxCell>
        <mxCell id="AmCgRK_z2GuwqKj7xeCC-2" style="edgeStyle=orthogonalEdgeStyle;rounded=0;orthogonalLoop=1;jettySize=auto;html=1;" edge="1" parent="WIyWlLk6GJQsqaUBKTNV-1" source="AmCgRK_z2GuwqKj7xeCC-0" target="zkfFHV4jXpPFQw0GAbJ--0">
          <mxGeometry relative="1" as="geometry" />
        </mxCell>
        <mxCell id="AmCgRK_z2GuwqKj7xeCC-0" value="IronMine" style="swimlane;fontStyle=0;align=center;verticalAlign=top;childLayout=stackLayout;horizontal=1;startSize=26;horizontalStack=0;resizeParent=1;resizeLast=0;collapsible=1;marginBottom=0;rounded=0;shadow=0;strokeWidth=1;" vertex="1" parent="WIyWlLk6GJQsqaUBKTNV-1">
          <mxGeometry x="334" y="220" width="160" height="50" as="geometry">
            <mxRectangle x="340" y="380" width="170" height="26" as="alternateBounds" />
          </mxGeometry>
        </mxCell>
        <mxCell id="AmCgRK_z2GuwqKj7xeCC-3" style="edgeStyle=orthogonalEdgeStyle;rounded=0;orthogonalLoop=1;jettySize=auto;html=1;" edge="1" parent="WIyWlLk6GJQsqaUBKTNV-1" source="AmCgRK_z2GuwqKj7xeCC-1" target="zkfFHV4jXpPFQw0GAbJ--0">
          <mxGeometry relative="1" as="geometry">
            <Array as="points">
              <mxPoint x="604" y="170" />
              <mxPoint x="414" y="170" />
            </Array>
          </mxGeometry>
        </mxCell>
        <mxCell id="AmCgRK_z2GuwqKj7xeCC-1" value="IronMine" style="swimlane;fontStyle=0;align=center;verticalAlign=top;childLayout=stackLayout;horizontal=1;startSize=26;horizontalStack=0;resizeParent=1;resizeLast=0;collapsible=1;marginBottom=0;rounded=0;shadow=0;strokeWidth=1;" vertex="1" parent="WIyWlLk6GJQsqaUBKTNV-1">
          <mxGeometry x="524" y="220" width="160" height="50" as="geometry">
            <mxRectangle x="340" y="380" width="170" height="26" as="alternateBounds" />
          </mxGeometry>
        </mxCell>
        <mxCell id="AmCgRK_z2GuwqKj7xeCC-19" style="edgeStyle=orthogonalEdgeStyle;rounded=0;orthogonalLoop=1;jettySize=auto;html=1;entryX=0.5;entryY=1;entryDx=0;entryDy=0;endArrow=none;startFill=0;" edge="1" parent="WIyWlLk6GJQsqaUBKTNV-1" source="AmCgRK_z2GuwqKj7xeCC-6" target="AmCgRK_z2GuwqKj7xeCC-1">
          <mxGeometry relative="1" as="geometry" />
        </mxCell>
        <mxCell id="AmCgRK_z2GuwqKj7xeCC-20" style="edgeStyle=orthogonalEdgeStyle;rounded=0;orthogonalLoop=1;jettySize=auto;html=1;entryX=0.5;entryY=1;entryDx=0;entryDy=0;endArrow=none;startFill=0;" edge="1" parent="WIyWlLk6GJQsqaUBKTNV-1" source="AmCgRK_z2GuwqKj7xeCC-6" target="AmCgRK_z2GuwqKj7xeCC-0">
          <mxGeometry relative="1" as="geometry" />
        </mxCell>
        <mxCell id="AmCgRK_z2GuwqKj7xeCC-21" style="edgeStyle=orthogonalEdgeStyle;rounded=0;orthogonalLoop=1;jettySize=auto;html=1;entryX=0.5;entryY=1;entryDx=0;entryDy=0;endArrow=none;startFill=0;" edge="1" parent="WIyWlLk6GJQsqaUBKTNV-1" source="AmCgRK_z2GuwqKj7xeCC-6" target="zkfFHV4jXpPFQw0GAbJ--13">
          <mxGeometry relative="1" as="geometry" />
        </mxCell>
        <mxCell id="AmCgRK_z2GuwqKj7xeCC-61" style="edgeStyle=orthogonalEdgeStyle;rounded=0;orthogonalLoop=1;jettySize=auto;html=1;" edge="1" parent="WIyWlLk6GJQsqaUBKTNV-1" source="AmCgRK_z2GuwqKj7xeCC-6" target="AmCgRK_z2GuwqKj7xeCC-60">
          <mxGeometry relative="1" as="geometry">
            <Array as="points">
              <mxPoint x="572" y="420" />
              <mxPoint x="572" y="365" />
            </Array>
          </mxGeometry>
        </mxCell>
        <mxCell id="AmCgRK_z2GuwqKj7xeCC-6" value="User" style="swimlane;fontStyle=2;align=center;verticalAlign=top;childLayout=stackLayout;horizontal=1;startSize=26;horizontalStack=0;resizeParent=1;resizeLast=0;collapsible=1;marginBottom=0;rounded=0;shadow=0;strokeWidth=1;" vertex="1" parent="WIyWlLk6GJQsqaUBKTNV-1">
          <mxGeometry x="324" y="340" width="180" height="300" as="geometry">
            <mxRectangle x="360" y="90" width="160" height="26" as="alternateBounds" />
          </mxGeometry>
        </mxCell>
        <mxCell id="AmCgRK_z2GuwqKj7xeCC-7" value="- IronMineId : int" style="text;align=left;verticalAlign=top;spacingLeft=4;spacingRight=4;overflow=hidden;rotatable=0;points=[[0,0.5],[1,0.5]];portConstraint=eastwest;" vertex="1" parent="AmCgRK_z2GuwqKj7xeCC-6">
          <mxGeometry y="26" width="180" height="26" as="geometry" />
        </mxCell>
        <mxCell id="AmCgRK_z2GuwqKj7xeCC-8" value="- IronMine : IronMine" style="text;align=left;verticalAlign=top;spacingLeft=4;spacingRight=4;overflow=hidden;rotatable=0;points=[[0,0.5],[1,0.5]];portConstraint=eastwest;rounded=0;shadow=0;html=0;" vertex="1" parent="AmCgRK_z2GuwqKj7xeCC-6">
          <mxGeometry y="52" width="180" height="26" as="geometry" />
        </mxCell>
        <mxCell id="AmCgRK_z2GuwqKj7xeCC-9" value="- GoldMineId : int" style="text;align=left;verticalAlign=top;spacingLeft=4;spacingRight=4;overflow=hidden;rotatable=0;points=[[0,0.5],[1,0.5]];portConstraint=eastwest;rounded=0;shadow=0;html=0;" vertex="1" parent="AmCgRK_z2GuwqKj7xeCC-6">
          <mxGeometry y="78" width="180" height="22" as="geometry" />
        </mxCell>
        <mxCell id="AmCgRK_z2GuwqKj7xeCC-10" value="- GoldMine : GoldMine" style="text;align=left;verticalAlign=top;spacingLeft=4;spacingRight=4;overflow=hidden;rotatable=0;points=[[0,0.5],[1,0.5]];portConstraint=eastwest;rounded=0;shadow=0;html=0;" vertex="1" parent="AmCgRK_z2GuwqKj7xeCC-6">
          <mxGeometry y="100" width="180" height="22" as="geometry" />
        </mxCell>
        <mxCell id="AmCgRK_z2GuwqKj7xeCC-11" value="- DiamondMineId : int" style="text;align=left;verticalAlign=top;spacingLeft=4;spacingRight=4;overflow=hidden;rotatable=0;points=[[0,0.5],[1,0.5]];portConstraint=eastwest;rounded=0;shadow=0;html=0;" vertex="1" parent="AmCgRK_z2GuwqKj7xeCC-6">
          <mxGeometry y="122" width="180" height="22" as="geometry" />
        </mxCell>
        <mxCell id="AmCgRK_z2GuwqKj7xeCC-12" value="- DiamondMine : DiamondMine" style="text;align=left;verticalAlign=top;spacingLeft=4;spacingRight=4;overflow=hidden;rotatable=0;points=[[0,0.5],[1,0.5]];portConstraint=eastwest;rounded=0;shadow=0;html=0;" vertex="1" parent="AmCgRK_z2GuwqKj7xeCC-6">
          <mxGeometry y="144" width="180" height="22" as="geometry" />
        </mxCell>
        <mxCell id="AmCgRK_z2GuwqKj7xeCC-13" value="- UsedPickaxeId : int" style="text;align=left;verticalAlign=top;spacingLeft=4;spacingRight=4;overflow=hidden;rotatable=0;points=[[0,0.5],[1,0.5]];portConstraint=eastwest;rounded=0;shadow=0;html=0;" vertex="1" parent="AmCgRK_z2GuwqKj7xeCC-6">
          <mxGeometry y="166" width="180" height="22" as="geometry" />
        </mxCell>
        <mxCell id="AmCgRK_z2GuwqKj7xeCC-14" value="- UsedPickaxe : UsedPickaxe" style="text;align=left;verticalAlign=top;spacingLeft=4;spacingRight=4;overflow=hidden;rotatable=0;points=[[0,0.5],[1,0.5]];portConstraint=eastwest;rounded=0;shadow=0;html=0;" vertex="1" parent="AmCgRK_z2GuwqKj7xeCC-6">
          <mxGeometry y="188" width="180" height="22" as="geometry" />
        </mxCell>
        <mxCell id="AmCgRK_z2GuwqKj7xeCC-15" value="- PickaxesEq : List&lt;Pickaxe&gt;" style="text;align=left;verticalAlign=top;spacingLeft=4;spacingRight=4;overflow=hidden;rotatable=0;points=[[0,0.5],[1,0.5]];portConstraint=eastwest;rounded=0;shadow=0;html=0;" vertex="1" parent="AmCgRK_z2GuwqKj7xeCC-6">
          <mxGeometry y="210" width="180" height="22" as="geometry" />
        </mxCell>
        <mxCell id="AmCgRK_z2GuwqKj7xeCC-16" value="- Iron : double" style="text;align=left;verticalAlign=top;spacingLeft=4;spacingRight=4;overflow=hidden;rotatable=0;points=[[0,0.5],[1,0.5]];portConstraint=eastwest;rounded=0;shadow=0;html=0;" vertex="1" parent="AmCgRK_z2GuwqKj7xeCC-6">
          <mxGeometry y="232" width="180" height="22" as="geometry" />
        </mxCell>
        <mxCell id="AmCgRK_z2GuwqKj7xeCC-17" value="- Gold : double" style="text;align=left;verticalAlign=top;spacingLeft=4;spacingRight=4;overflow=hidden;rotatable=0;points=[[0,0.5],[1,0.5]];portConstraint=eastwest;rounded=0;shadow=0;html=0;" vertex="1" parent="AmCgRK_z2GuwqKj7xeCC-6">
          <mxGeometry y="254" width="180" height="22" as="geometry" />
        </mxCell>
        <mxCell id="AmCgRK_z2GuwqKj7xeCC-18" value="- Diamond : double" style="text;align=left;verticalAlign=top;spacingLeft=4;spacingRight=4;overflow=hidden;rotatable=0;points=[[0,0.5],[1,0.5]];portConstraint=eastwest;rounded=0;shadow=0;html=0;" vertex="1" parent="AmCgRK_z2GuwqKj7xeCC-6">
          <mxGeometry y="276" width="180" height="22" as="geometry" />
        </mxCell>
        <mxCell id="AmCgRK_z2GuwqKj7xeCC-29" style="edgeStyle=orthogonalEdgeStyle;rounded=0;orthogonalLoop=1;jettySize=auto;html=1;endArrow=none;startFill=0;" edge="1" parent="WIyWlLk6GJQsqaUBKTNV-1" source="AmCgRK_z2GuwqKj7xeCC-22" target="AmCgRK_z2GuwqKj7xeCC-6">
          <mxGeometry relative="1" as="geometry">
            <Array as="points">
              <mxPoint x="130" y="570" />
            </Array>
          </mxGeometry>
        </mxCell>
        <mxCell id="AmCgRK_z2GuwqKj7xeCC-22" value="Pickaxe" style="swimlane;fontStyle=2;align=center;verticalAlign=top;childLayout=stackLayout;horizontal=1;startSize=26;horizontalStack=0;resizeParent=1;resizeLast=0;collapsible=1;marginBottom=0;rounded=0;shadow=0;strokeWidth=1;" vertex="1" parent="WIyWlLk6GJQsqaUBKTNV-1">
          <mxGeometry x="30" y="670" width="220" height="170" as="geometry">
            <mxRectangle x="360" y="90" width="160" height="26" as="alternateBounds" />
          </mxGeometry>
        </mxCell>
        <mxCell id="AmCgRK_z2GuwqKj7xeCC-23" value="- Id : int" style="text;align=left;verticalAlign=top;spacingLeft=4;spacingRight=4;overflow=hidden;rotatable=0;points=[[0,0.5],[1,0.5]];portConstraint=eastwest;" vertex="1" parent="AmCgRK_z2GuwqKj7xeCC-22">
          <mxGeometry y="26" width="220" height="26" as="geometry" />
        </mxCell>
        <mxCell id="AmCgRK_z2GuwqKj7xeCC-24" value="- Name : String" style="text;align=left;verticalAlign=top;spacingLeft=4;spacingRight=4;overflow=hidden;rotatable=0;points=[[0,0.5],[1,0.5]];portConstraint=eastwest;rounded=0;shadow=0;html=0;" vertex="1" parent="AmCgRK_z2GuwqKj7xeCC-22">
          <mxGeometry y="52" width="220" height="26" as="geometry" />
        </mxCell>
        <mxCell id="AmCgRK_z2GuwqKj7xeCC-25" value="- ImageName: String" style="text;align=left;verticalAlign=top;spacingLeft=4;spacingRight=4;overflow=hidden;rotatable=0;points=[[0,0.5],[1,0.5]];portConstraint=eastwest;rounded=0;shadow=0;html=0;" vertex="1" parent="AmCgRK_z2GuwqKj7xeCC-22">
          <mxGeometry y="78" width="220" height="22" as="geometry" />
        </mxCell>
        <mxCell id="AmCgRK_z2GuwqKj7xeCC-26" value="- PickaxeResourceMultipliers: List&lt;PickaxeResourceMultiplier&gt;" style="text;align=left;verticalAlign=top;spacingLeft=4;spacingRight=4;overflow=hidden;rotatable=0;points=[[0,0.5],[1,0.5]];portConstraint=eastwest;rounded=0;shadow=0;html=0;" vertex="1" parent="AmCgRK_z2GuwqKj7xeCC-22">
          <mxGeometry y="100" width="220" height="22" as="geometry" />
        </mxCell>
        <mxCell id="AmCgRK_z2GuwqKj7xeCC-27" value="- RequirmentLevel: int" style="text;align=left;verticalAlign=top;spacingLeft=4;spacingRight=4;overflow=hidden;rotatable=0;points=[[0,0.5],[1,0.5]];portConstraint=eastwest;rounded=0;shadow=0;html=0;" vertex="1" parent="AmCgRK_z2GuwqKj7xeCC-22">
          <mxGeometry y="122" width="220" height="22" as="geometry" />
        </mxCell>
        <mxCell id="AmCgRK_z2GuwqKj7xeCC-28" value="- Users: List&lt;User&gt;" style="text;align=left;verticalAlign=top;spacingLeft=4;spacingRight=4;overflow=hidden;rotatable=0;points=[[0,0.5],[1,0.5]];portConstraint=eastwest;rounded=0;shadow=0;html=0;" vertex="1" parent="AmCgRK_z2GuwqKj7xeCC-22">
          <mxGeometry y="144" width="220" height="22" as="geometry" />
        </mxCell>
        <mxCell id="AmCgRK_z2GuwqKj7xeCC-37" style="edgeStyle=orthogonalEdgeStyle;rounded=0;orthogonalLoop=1;jettySize=auto;html=1;endArrow=none;startFill=0;" edge="1" parent="WIyWlLk6GJQsqaUBKTNV-1" source="AmCgRK_z2GuwqKj7xeCC-30" target="AmCgRK_z2GuwqKj7xeCC-22">
          <mxGeometry relative="1" as="geometry" />
        </mxCell>
        <mxCell id="AmCgRK_z2GuwqKj7xeCC-30" value="PickaxeResourceMultiplier" style="swimlane;fontStyle=2;align=center;verticalAlign=top;childLayout=stackLayout;horizontal=1;startSize=26;horizontalStack=0;resizeParent=1;resizeLast=0;collapsible=1;marginBottom=0;rounded=0;shadow=0;strokeWidth=1;" vertex="1" parent="WIyWlLk6GJQsqaUBKTNV-1">
          <mxGeometry x="30" y="870" width="220" height="170" as="geometry">
            <mxRectangle x="360" y="90" width="160" height="26" as="alternateBounds" />
          </mxGeometry>
        </mxCell>
        <mxCell id="AmCgRK_z2GuwqKj7xeCC-31" value="- Id : int" style="text;align=left;verticalAlign=top;spacingLeft=4;spacingRight=4;overflow=hidden;rotatable=0;points=[[0,0.5],[1,0.5]];portConstraint=eastwest;" vertex="1" parent="AmCgRK_z2GuwqKj7xeCC-30">
          <mxGeometry y="26" width="220" height="26" as="geometry" />
        </mxCell>
        <mxCell id="AmCgRK_z2GuwqKj7xeCC-32" value="- PickaxeId : int" style="text;align=left;verticalAlign=top;spacingLeft=4;spacingRight=4;overflow=hidden;rotatable=0;points=[[0,0.5],[1,0.5]];portConstraint=eastwest;rounded=0;shadow=0;html=0;" vertex="1" parent="AmCgRK_z2GuwqKj7xeCC-30">
          <mxGeometry y="52" width="220" height="26" as="geometry" />
        </mxCell>
        <mxCell id="AmCgRK_z2GuwqKj7xeCC-33" value="- Pickaxe: Pickaxe" style="text;align=left;verticalAlign=top;spacingLeft=4;spacingRight=4;overflow=hidden;rotatable=0;points=[[0,0.5],[1,0.5]];portConstraint=eastwest;rounded=0;shadow=0;html=0;" vertex="1" parent="AmCgRK_z2GuwqKj7xeCC-30">
          <mxGeometry y="78" width="220" height="22" as="geometry" />
        </mxCell>
        <mxCell id="AmCgRK_z2GuwqKj7xeCC-34" value="- ResourceTypeId : int" style="text;align=left;verticalAlign=top;spacingLeft=4;spacingRight=4;overflow=hidden;rotatable=0;points=[[0,0.5],[1,0.5]];portConstraint=eastwest;rounded=0;shadow=0;html=0;" vertex="1" parent="AmCgRK_z2GuwqKj7xeCC-30">
          <mxGeometry y="100" width="220" height="22" as="geometry" />
        </mxCell>
        <mxCell id="AmCgRK_z2GuwqKj7xeCC-35" value="- ResourceType : ResourceType" style="text;align=left;verticalAlign=top;spacingLeft=4;spacingRight=4;overflow=hidden;rotatable=0;points=[[0,0.5],[1,0.5]];portConstraint=eastwest;rounded=0;shadow=0;html=0;" vertex="1" parent="AmCgRK_z2GuwqKj7xeCC-30">
          <mxGeometry y="122" width="220" height="22" as="geometry" />
        </mxCell>
        <mxCell id="AmCgRK_z2GuwqKj7xeCC-36" value="- Value : int" style="text;align=left;verticalAlign=top;spacingLeft=4;spacingRight=4;overflow=hidden;rotatable=0;points=[[0,0.5],[1,0.5]];portConstraint=eastwest;rounded=0;shadow=0;html=0;" vertex="1" parent="AmCgRK_z2GuwqKj7xeCC-30">
          <mxGeometry y="144" width="220" height="22" as="geometry" />
        </mxCell>
        <mxCell id="AmCgRK_z2GuwqKj7xeCC-52" style="edgeStyle=orthogonalEdgeStyle;rounded=0;orthogonalLoop=1;jettySize=auto;html=1;endArrow=none;startFill=0;" edge="1" parent="WIyWlLk6GJQsqaUBKTNV-1" source="AmCgRK_z2GuwqKj7xeCC-38" target="AmCgRK_z2GuwqKj7xeCC-45">
          <mxGeometry relative="1" as="geometry" />
        </mxCell>
        <mxCell id="AmCgRK_z2GuwqKj7xeCC-53" style="edgeStyle=orthogonalEdgeStyle;rounded=0;orthogonalLoop=1;jettySize=auto;html=1;endArrow=none;startFill=0;" edge="1" parent="WIyWlLk6GJQsqaUBKTNV-1" source="AmCgRK_z2GuwqKj7xeCC-38" target="AmCgRK_z2GuwqKj7xeCC-22">
          <mxGeometry relative="1" as="geometry" />
        </mxCell>
        <mxCell id="AmCgRK_z2GuwqKj7xeCC-59" style="edgeStyle=orthogonalEdgeStyle;rounded=0;orthogonalLoop=1;jettySize=auto;html=1;entryX=0;entryY=0.5;entryDx=0;entryDy=0;endArrow=none;startFill=0;" edge="1" parent="WIyWlLk6GJQsqaUBKTNV-1" source="AmCgRK_z2GuwqKj7xeCC-38" target="AmCgRK_z2GuwqKj7xeCC-54">
          <mxGeometry relative="1" as="geometry" />
        </mxCell>
        <mxCell id="AmCgRK_z2GuwqKj7xeCC-38" value="PickaxeShop" style="swimlane;fontStyle=2;align=center;verticalAlign=top;childLayout=stackLayout;horizontal=1;startSize=26;horizontalStack=0;resizeParent=1;resizeLast=0;collapsible=1;marginBottom=0;rounded=0;shadow=0;strokeWidth=1;" vertex="1" parent="WIyWlLk6GJQsqaUBKTNV-1">
          <mxGeometry x="310" y="730" width="220" height="130" as="geometry">
            <mxRectangle x="360" y="90" width="160" height="26" as="alternateBounds" />
          </mxGeometry>
        </mxCell>
        <mxCell id="AmCgRK_z2GuwqKj7xeCC-39" value="- Id : int" style="text;align=left;verticalAlign=top;spacingLeft=4;spacingRight=4;overflow=hidden;rotatable=0;points=[[0,0.5],[1,0.5]];portConstraint=eastwest;" vertex="1" parent="AmCgRK_z2GuwqKj7xeCC-38">
          <mxGeometry y="26" width="220" height="26" as="geometry" />
        </mxCell>
        <mxCell id="AmCgRK_z2GuwqKj7xeCC-40" value="- PickaxeId : int" style="text;align=left;verticalAlign=top;spacingLeft=4;spacingRight=4;overflow=hidden;rotatable=0;points=[[0,0.5],[1,0.5]];portConstraint=eastwest;rounded=0;shadow=0;html=0;" vertex="1" parent="AmCgRK_z2GuwqKj7xeCC-38">
          <mxGeometry y="52" width="220" height="26" as="geometry" />
        </mxCell>
        <mxCell id="AmCgRK_z2GuwqKj7xeCC-41" value="- Pickaxe: Pickaxe" style="text;align=left;verticalAlign=top;spacingLeft=4;spacingRight=4;overflow=hidden;rotatable=0;points=[[0,0.5],[1,0.5]];portConstraint=eastwest;rounded=0;shadow=0;html=0;" vertex="1" parent="AmCgRK_z2GuwqKj7xeCC-38">
          <mxGeometry y="78" width="220" height="22" as="geometry" />
        </mxCell>
        <mxCell id="AmCgRK_z2GuwqKj7xeCC-42" value="- PickaxeShopResourceCosts: List&lt;PickaxeShopResourceCost&gt;" style="text;align=left;verticalAlign=top;spacingLeft=4;spacingRight=4;overflow=hidden;rotatable=0;points=[[0,0.5],[1,0.5]];portConstraint=eastwest;rounded=0;shadow=0;html=0;" vertex="1" parent="AmCgRK_z2GuwqKj7xeCC-38">
          <mxGeometry y="100" width="220" height="22" as="geometry" />
        </mxCell>
        <mxCell id="AmCgRK_z2GuwqKj7xeCC-45" value="PickaxeShopResourceCost" style="swimlane;fontStyle=2;align=center;verticalAlign=top;childLayout=stackLayout;horizontal=1;startSize=26;horizontalStack=0;resizeParent=1;resizeLast=0;collapsible=1;marginBottom=0;rounded=0;shadow=0;strokeWidth=1;" vertex="1" parent="WIyWlLk6GJQsqaUBKTNV-1">
          <mxGeometry x="310" y="900" width="220" height="170" as="geometry">
            <mxRectangle x="360" y="90" width="160" height="26" as="alternateBounds" />
          </mxGeometry>
        </mxCell>
        <mxCell id="AmCgRK_z2GuwqKj7xeCC-46" value="- Id : int" style="text;align=left;verticalAlign=top;spacingLeft=4;spacingRight=4;overflow=hidden;rotatable=0;points=[[0,0.5],[1,0.5]];portConstraint=eastwest;" vertex="1" parent="AmCgRK_z2GuwqKj7xeCC-45">
          <mxGeometry y="26" width="220" height="26" as="geometry" />
        </mxCell>
        <mxCell id="AmCgRK_z2GuwqKj7xeCC-47" value="- PickaxeShopId : int" style="text;align=left;verticalAlign=top;spacingLeft=4;spacingRight=4;overflow=hidden;rotatable=0;points=[[0,0.5],[1,0.5]];portConstraint=eastwest;rounded=0;shadow=0;html=0;" vertex="1" parent="AmCgRK_z2GuwqKj7xeCC-45">
          <mxGeometry y="52" width="220" height="26" as="geometry" />
        </mxCell>
        <mxCell id="AmCgRK_z2GuwqKj7xeCC-48" value="- PickaxeShop : PickaxeShop" style="text;align=left;verticalAlign=top;spacingLeft=4;spacingRight=4;overflow=hidden;rotatable=0;points=[[0,0.5],[1,0.5]];portConstraint=eastwest;rounded=0;shadow=0;html=0;" vertex="1" parent="AmCgRK_z2GuwqKj7xeCC-45">
          <mxGeometry y="78" width="220" height="22" as="geometry" />
        </mxCell>
        <mxCell id="AmCgRK_z2GuwqKj7xeCC-49" value="- ResourceTypeId : int" style="text;align=left;verticalAlign=top;spacingLeft=4;spacingRight=4;overflow=hidden;rotatable=0;points=[[0,0.5],[1,0.5]];portConstraint=eastwest;rounded=0;shadow=0;html=0;" vertex="1" parent="AmCgRK_z2GuwqKj7xeCC-45">
          <mxGeometry y="100" width="220" height="22" as="geometry" />
        </mxCell>
        <mxCell id="AmCgRK_z2GuwqKj7xeCC-50" value="- ResourceType : ResourceType" style="text;align=left;verticalAlign=top;spacingLeft=4;spacingRight=4;overflow=hidden;rotatable=0;points=[[0,0.5],[1,0.5]];portConstraint=eastwest;rounded=0;shadow=0;html=0;" vertex="1" parent="AmCgRK_z2GuwqKj7xeCC-45">
          <mxGeometry y="122" width="220" height="22" as="geometry" />
        </mxCell>
        <mxCell id="AmCgRK_z2GuwqKj7xeCC-51" value="- Value : double" style="text;align=left;verticalAlign=top;spacingLeft=4;spacingRight=4;overflow=hidden;rotatable=0;points=[[0,0.5],[1,0.5]];portConstraint=eastwest;rounded=0;shadow=0;html=0;" vertex="1" parent="AmCgRK_z2GuwqKj7xeCC-45">
          <mxGeometry y="144" width="220" height="22" as="geometry" />
        </mxCell>
        <mxCell id="AmCgRK_z2GuwqKj7xeCC-54" value="Shop" style="swimlane;fontStyle=2;align=center;verticalAlign=top;childLayout=stackLayout;horizontal=1;startSize=26;horizontalStack=0;resizeParent=1;resizeLast=0;collapsible=1;marginBottom=0;rounded=0;shadow=0;strokeWidth=1;" vertex="1" parent="WIyWlLk6GJQsqaUBKTNV-1">
          <mxGeometry x="580" y="620" width="220" height="80" as="geometry">
            <mxRectangle x="360" y="90" width="160" height="26" as="alternateBounds" />
          </mxGeometry>
        </mxCell>
        <mxCell id="AmCgRK_z2GuwqKj7xeCC-55" value="- Id : int" style="text;align=left;verticalAlign=top;spacingLeft=4;spacingRight=4;overflow=hidden;rotatable=0;points=[[0,0.5],[1,0.5]];portConstraint=eastwest;" vertex="1" parent="AmCgRK_z2GuwqKj7xeCC-54">
          <mxGeometry y="26" width="220" height="26" as="geometry" />
        </mxCell>
        <mxCell id="AmCgRK_z2GuwqKj7xeCC-56" value="- PickaxeShops : List&lt;PickaxeShop&gt;" style="text;align=left;verticalAlign=top;spacingLeft=4;spacingRight=4;overflow=hidden;rotatable=0;points=[[0,0.5],[1,0.5]];portConstraint=eastwest;rounded=0;shadow=0;html=0;" vertex="1" parent="AmCgRK_z2GuwqKj7xeCC-54">
          <mxGeometry y="52" width="220" height="26" as="geometry" />
        </mxCell>
        <mxCell id="AmCgRK_z2GuwqKj7xeCC-60" value="IdentityUser" style="swimlane;fontStyle=0;align=center;verticalAlign=top;childLayout=stackLayout;horizontal=1;startSize=26;horizontalStack=0;resizeParent=1;resizeLast=0;collapsible=1;marginBottom=0;rounded=0;shadow=0;strokeWidth=1;" vertex="1" parent="WIyWlLk6GJQsqaUBKTNV-1">
          <mxGeometry x="640" y="340" width="160" height="50" as="geometry">
            <mxRectangle x="340" y="380" width="170" height="26" as="alternateBounds" />
          </mxGeometry>
        </mxCell>
      </root>
    </mxGraphModel>
  </diagram>
</mxfile>
